<svg width="613" height="192" viewBox="0 0 613 192" fill="none" xmlns="http://www.w3.org/2000/svg">
<path d="M111.437 181.082C71.0396 161.472 -6.27298 109.44 7.65721 58.197C25.07 -5.85633 106.213 -11.7743 132.681 44.9686C153.855 90.363 92.0509 158.571 58.5024 187M43.1792 77.3434L50.4925 99.6228M91.9349 66.2037V89.5275" stroke="black" stroke-width="10" stroke-linecap="round"/>
<path d="M187.9 134C186.367 134 185.033 133.433 183.9 132.3C182.767 131.167 182.2 129.833 182.2 128.3V66.7C182.2 65.1667 182.767 63.8333 183.9 62.7C185.033 61.5667 186.367 61 187.9 61H188C189.533 61 190.867 61.5667 192 62.7C193.133 63.8333 193.7 65.1667 193.7 66.7V123.9C193.7 124.5 193.967 124.8 194.5 124.8H222.6C223.867 124.8 224.933 125.267 225.8 126.2C226.733 127.067 227.2 128.133 227.2 129.4C227.2 130.667 226.733 131.767 225.8 132.7C224.933 133.567 223.867 134 222.6 134H187.9Z" fill="black"/>
<path d="M272.934 108C272.934 95.3333 268.334 89 259.134 89C249.934 89 245.334 95.3333 245.334 108C245.334 120.667 249.934 127 259.134 127C268.334 127 272.934 120.667 272.934 108ZM277.134 128C272.8 132.667 266.8 135 259.134 135C251.467 135 245.467 132.667 241.134 128C236.8 123.267 234.634 116.6 234.634 108C234.634 99.4 236.8 92.7667 241.134 88.1C245.467 83.3667 251.467 81 259.134 81C266.8 81 272.8 83.3667 277.134 88.1C281.467 92.7667 283.634 99.4 283.634 108C283.634 116.6 281.467 123.267 277.134 128Z" fill="black"/>
<path d="M315.555 89C307.222 89 303.055 95 303.055 107C303.055 113.4 304.155 118.167 306.355 121.3C308.622 124.433 311.689 126 315.555 126C318.955 126 321.889 124.767 324.355 122.3C326.822 119.767 328.055 116.833 328.055 113.5V101.5C328.055 98.1667 326.822 95.2667 324.355 92.8C321.889 90.2667 318.955 89 315.555 89ZM312.555 134C306.689 134 301.889 131.633 298.155 126.9C294.422 122.167 292.555 115.533 292.555 107C292.555 98.7333 294.322 92.3333 297.855 87.8C301.389 83.2667 306.289 81 312.555 81C315.755 81 318.555 81.5667 320.955 82.7C323.355 83.7667 325.789 85.6667 328.255 88.4C328.322 88.4667 328.389 88.5 328.455 88.5C328.522 88.5 328.555 88.4667 328.555 88.4V86.9C328.622 85.5667 329.155 84.4333 330.155 83.5C331.155 82.5 332.322 82 333.655 82C334.989 82 336.122 82.5 337.055 83.5C338.055 84.4333 338.555 85.5667 338.555 86.9V130.5C338.555 139.567 336.522 146.233 332.455 150.5C328.389 154.833 322.089 157 313.555 157C309.689 157 306.122 156.667 302.855 156C301.589 155.733 300.555 155.067 299.755 154C298.955 153 298.555 151.833 298.555 150.5C298.555 149.433 298.989 148.567 299.855 147.9C300.789 147.3 301.789 147.167 302.855 147.5C306.389 148.5 309.955 149 313.555 149C318.622 149 322.289 147.567 324.555 144.7C326.889 141.9 328.055 137.333 328.055 131V127.6C328.055 127.533 328.022 127.5 327.955 127.5C327.889 127.5 327.822 127.533 327.755 127.6C323.555 131.867 318.489 134 312.555 134Z" fill="black"/>
<path d="M387.777 108C387.777 95.3333 383.177 89 373.977 89C364.777 89 360.177 95.3333 360.177 108C360.177 120.667 364.777 127 373.977 127C383.177 127 387.777 120.667 387.777 108ZM391.977 128C387.644 132.667 381.644 135 373.977 135C366.311 135 360.311 132.667 355.977 128C351.644 123.267 349.477 116.6 349.477 108C349.477 99.4 351.644 92.7667 355.977 88.1C360.311 83.3667 366.311 81 373.977 81C381.644 81 387.644 83.3667 391.977 88.1C396.311 92.7667 398.477 99.4 398.477 108C398.477 116.6 396.311 123.267 391.977 128Z" fill="black"/>
<path d="M409.946 92C408.813 92 407.846 91.6 407.046 90.8C406.313 90 405.946 89.0667 405.946 88C405.946 86.9333 406.313 86 407.046 85.2C407.846 84.4 408.813 84 409.946 84H415.546C416.146 84 416.446 83.7 416.446 83.1V70.2C416.446 68.7333 416.946 67.5 417.946 66.5C418.946 65.5 420.179 65 421.646 65C423.113 65 424.346 65.5 425.346 66.5C426.413 67.5 426.946 68.7333 426.946 70.2V83.1C426.946 83.7 427.246 84 427.846 84H440.946C442.079 84 443.013 84.4 443.746 85.2C444.546 86 444.946 86.9333 444.946 88C444.946 89.0667 444.546 90 443.746 90.8C443.013 91.6 442.079 92 440.946 92H427.846C427.246 92 426.946 92.3 426.946 92.9V116C426.946 120.533 427.479 123.5 428.546 124.9C429.613 126.3 431.746 127 434.946 127C436.479 127 437.946 126.9 439.346 126.7C440.413 126.567 441.346 126.8 442.146 127.4C443.013 128 443.446 128.8 443.446 129.8C443.446 131 443.046 132.067 442.246 133C441.446 133.933 440.446 134.467 439.246 134.6C436.446 134.867 434.346 135 432.946 135C426.813 135 422.513 133.7 420.046 131.1C417.646 128.5 416.446 123.8 416.446 117V92.9C416.446 92.3 416.146 92 415.546 92H409.946Z" fill="black"/>
<path d="M472.625 133.2L456.225 87.2C455.758 85.9333 455.925 84.7667 456.725 83.7C457.525 82.5667 458.592 82 459.925 82C461.592 82 463.092 82.5 464.425 83.5C465.758 84.4333 466.658 85.6667 467.125 87.2L478.325 121.9C478.325 121.967 478.358 122 478.425 122C478.492 122 478.525 121.967 478.525 121.9L491.025 87C491.625 85.4667 492.558 84.2667 493.825 83.4C495.092 82.4667 496.525 82 498.125 82C499.392 82 500.358 82.5333 501.025 83.6C501.758 84.6 501.892 85.7 501.425 86.9L475.925 151.1C475.325 152.567 474.358 153.733 473.025 154.6C471.692 155.533 470.225 156 468.625 156C467.425 156 466.458 155.467 465.725 154.4C465.058 153.333 464.958 152.233 465.425 151.1L472.625 134.8C472.758 134.533 472.825 134.267 472.825 134C472.825 133.733 472.758 133.467 472.625 133.2Z" fill="black"/>
<path d="M521.973 100.5V115.5C521.973 118.567 523.24 121.267 525.773 123.6C528.373 125.867 531.44 127 534.973 127C538.973 127 542.14 125.4 544.473 122.2C546.807 119 547.973 114.267 547.973 108C547.973 95.3333 543.64 89 534.973 89C531.44 89 528.373 90.1667 525.773 92.5C523.24 94.7667 521.973 97.4333 521.973 100.5ZM520.373 154.5C519.373 155.5 518.14 156 516.673 156C515.207 156 513.973 155.5 512.973 154.5C511.973 153.5 511.473 152.267 511.473 150.8V86.9C511.473 85.5667 511.94 84.4333 512.873 83.5C513.873 82.5 515.04 82 516.373 82C517.707 82 518.873 82.5 519.873 83.5C520.873 84.4333 521.407 85.5667 521.473 86.9V88.4C521.473 88.4667 521.507 88.5 521.573 88.5C521.64 88.5 521.707 88.4667 521.773 88.4C524.24 85.6667 526.673 83.7667 529.073 82.7C531.473 81.5667 534.273 81 537.473 81C543.807 81 548.873 83.3667 552.673 88.1C556.54 92.8333 558.473 99.4667 558.473 108C558.473 116.267 556.473 122.833 552.473 127.7C548.54 132.567 543.54 135 537.473 135C531.54 135 526.473 132.867 522.273 128.6C522.207 128.533 522.14 128.5 522.073 128.5C522.007 128.5 521.973 128.533 521.973 128.6V150.8C521.973 152.267 521.44 153.5 520.373 154.5Z" fill="black"/>
<path d="M590.848 88.8C583.248 88.8 578.982 93.3 578.048 102.3C577.915 102.9 578.182 103.2 578.848 103.2H601.248C601.782 103.2 602.048 102.9 602.048 102.3C601.648 93.3 597.915 88.8 590.848 88.8ZM593.348 135C585.015 135 578.582 132.733 574.048 128.2C569.582 123.667 567.348 116.933 567.348 108C567.348 99.0667 569.348 92.3333 573.348 87.8C577.415 83.2667 583.248 81 590.848 81C604.715 81 611.882 89.1333 612.348 105.4C612.415 107 611.848 108.333 610.648 109.4C609.448 110.467 608.048 111 606.448 111H578.748C578.215 111 577.948 111.267 577.948 111.8C578.748 122.067 584.215 127.2 594.348 127.2C597.882 127.2 601.348 126.633 604.748 125.5C605.748 125.167 606.682 125.3 607.548 125.9C608.415 126.5 608.848 127.333 608.848 128.4C608.848 129.667 608.448 130.8 607.648 131.8C606.848 132.8 605.815 133.467 604.548 133.8C600.882 134.6 597.148 135 593.348 135Z" fill="black"/>
</svg>
